<?xml version="1.0" encoding="utf-8"?>
<!-- Generator: Adobe Illustrator 18.0.0, SVG Export Plug-In . SVG Version: 6.00 Build 0)  -->
<!DOCTYPE svg PUBLIC "-//W3C//DTD SVG 1.1//EN" "http://www.w3.org/Graphics/SVG/1.1/DTD/svg11.dtd">
<svg version="1.1" id="Layer_1" xmlns="http://www.w3.org/2000/svg" xmlns:xlink="http://www.w3.org/1999/xlink" x="0px" y="0px"
	 viewBox="0 0 595.3 841.9" enable-background="new 0 0 595.3 841.9" xml:space="preserve">
<title>icon</title>
<path fill="#101554" d="M121.3,333.1c0.3-16.3,4.6-32.4,12.7-46.6c5.5-12.7,14.8-23.4,26.5-30.6c5.5-2.3,11.3-4,17.1-5.2
	c5.8-1.5,11.7-2.3,17.6-2.5c1.8-0.1,3.6,0.1,5.2,0.7c6.2,5,11,11.6,13.7,19c1.8,3.2,4.3,7.7,7.5,13.6l8.8,16
	c2.7,4.8,5.3,9.2,7.7,13.5l4.4,6.3c2,2.8,3.8,5.8,5.4,8.9c1.1,2.2,1.8,4.7,1.8,7.1c-0.8,4.9-3.3,9.3-7.1,12.5
	c-4.8,5-9.9,9.7-15.5,13.8c-5.5,4.1-10.6,8.5-15.5,13.3c-3.8,2.9-6.3,7.2-7.1,11.9c0.1,1.9,0.6,3.8,1.3,5.6c0.6,1.7,1.3,3.5,2.1,5.1
	c0.6,1.2,1.7,3.2,3.5,6l2.7,4.2c11.7,21.5,26.4,41.3,43.6,58.8c17.5,17.2,37.3,31.9,58.8,43.6l4.8,3l6,3.5l4.9,1.7
	c1.8,0.8,3.7,1.2,5.6,1.3c4.7-0.8,9-3.4,11.9-7.1c4.8-4.8,9.3-10,13.3-15.5c4.2-5.5,8.8-10.7,13.8-15.5c3.2-3.8,7.6-6.3,12.5-7.1
	c2.5,0,4.9,0.7,7.1,1.8c3.1,1.6,6.1,3.4,8.9,5.4l6.3,4.4l13,8.6l15.7,8.3l13.6,7.5c7.5,2.6,14,7.2,19,13.3c0.6,1.7,0.8,3.5,0.7,5.2
	c-0.2,5.9-1,11.9-2.5,17.6c-1.2,5.9-3,11.6-5.2,17.1c-7.2,11.6-17.8,20.7-30.4,26.1c-14.2,8.1-30.2,12.5-46.6,12.7
	c-4.4,0-8.8-0.3-13.1-0.8c-4.9-0.7-9.7-1.7-14.4-3.1c-5.3-1.5-9.3-2.7-11.9-3.7l-14-5.1l-11.9-4.5c-15.3-5.4-30-12.3-43.8-20.8
	c-24.1-15.4-46.4-33.5-66.3-53.9c-20.5-20-38.6-42.2-53.9-66.3c-8.5-13.8-15.5-28.5-20.8-43.8c-0.5-1.5-2-5.5-4.5-11.9l-5.1-13.9
	c-1-2.6-2.2-6.6-3.7-11.9c-1.4-4.7-2.4-9.5-3.1-14.4c-0.6-4.3-0.8-8.7-0.8-13.1l0,0L121.3,333.1z"/>
</svg>
